<?xml version="1.0" encoding="utf-8"?>
<!-- Generator: Adobe Illustrator 22.0.1, SVG Export Plug-In . SVG Version: 6.00 Build 0)  -->
<svg version="1.1" id="Layer_1" xmlns="http://www.w3.org/2000/svg" xmlns:xlink="http://www.w3.org/1999/xlink" x="0px" y="0px"
	 viewBox="0 0 792 612" style="enable-background:new 0 0 792 612;" xml:space="preserve">
<style type="text/css">
	.st0{fill:#010101;}
	.st1{fill:#723F8F;}
	.st2{fill:#FDBA23;}
	.st3{fill:#231F20;}
	.st4{fill:#FFFFFF;}
</style>
<g>
	<path class="st0" d="M395.5,43.1L154.4,163.5l0,305.7l241.8,120.7l239.8-120V163.5L395.5,43.1L395.5,43.1z"/>
	<path class="st1" d="M234.6,316c0-29.2-0.1-102.9-0.1-102.9v-0.5l162.4-80.2l0,0L557.5,213l0,0l0,205.6l0,0
		c-46.2,22.9-160.7,80.9-160.7,80.9l0,0c-46.3-23.3-162.3-81.2-162.3-81.2l0,0C234.7,388.6,234.6,345.8,234.6,316z M524.3,251.1
		c-1.4,0.6-2.3,0.9-3.2,1.4c-35.3,17.6-70.6,35.3-105.9,52.9c-2.2,1.1-2.8,2.4-2.8,4.7c0.1,46.7,0,93.4,0.1,140.1
		c0,1.1,0.1,2.2,0.2,3.6c1.3-0.5,2.1-0.8,2.8-1.2c35.4-17.7,70.8-35.4,106.2-53c2.3-1.1,2.6-2.6,2.6-4.8c-0.1-46.6,0-93.2,0-139.8
		C524.3,253.9,524.3,252.8,524.3,251.1z M267.5,251c0,1.8,0,2.9,0,4c0,46.6,0,93.2-0.1,139.9c0,2.5,0.8,3.8,3.1,4.9
		c35.2,17.5,70.3,35.1,105.4,52.6c1,0.5,2,0.9,3.3,1.4c0.1-1.4,0.1-2.3,0.1-3.1c0-46.9,0-93.9,0.1-140.8c0-2.4-0.9-3.6-3-4.6
		c-35.1-17.5-70.1-35-105.1-52.5C270.3,252.2,269.2,251.8,267.5,251z M508.4,223.5l-111.6-53l0,0c0,0-115.7,54.5-117.2,55.3
		c1.3,0.7,79.3,33.9,113.1,50.9c2.4,1.2,4.2,1.1,6.5-0.1c28.5-14.4,57.1-28.6,85.7-42.9C491,230.6,509.2,223.9,508.4,223.5z"/>
	<path class="st2" d="M396.8,113.1l178,89.1v228.6l-177.3,88.8l-179.2-89.4l0-227.9L396.8,113.1 M396.9,59.5L170.4,172.6l0,287.2
		l227.1,113.4l225.3-112.7V172.6L396.9,59.5L396.9,59.5z"/>
	<g>
		<path class="st0" d="M655.7,275h-48h-5.9h-23.4v24.6H575V275h-23.4h-5.9h-54.3h-10h-50.2h-5.9h-66.6h-5.9h-42h-5.9h-50.2h-5.9h-42
			h-5.9h-64.3v29.3h4.1v49.1h44.8l15.4-15.4v15.4h48h5.9h50.2h5.9h42h5.9h18.6v4.1h29.3v-4.1h18.6h5.9h54.3h5.9h23.4v-21.5
			l16.9,33.8h10.9l12.3-12.3H575v-13.3l13.7,27.4l14.1-14.1h53v-32.5l-12.5-12.5h12.5V275z"/>
		<path class="st2" d="M148.9,344.9v-49.1h-4.1v-12.3H198v45l-16.4,16.4H148.9z M177.6,332.6l8.2-8.2v-28.6h-24.6v36.8H177.6z"/>
		<path class="st2" d="M209.1,344.9v-12.3h12.3v-36.8h-12.3v-12.3H246v12.3h-12.3v36.8H246v12.3H209.1z"/>
		<path class="st2" d="M257.1,344.9v-61.4h45v16.4h-12.3v-4.1h-20.5v36.8h32.7v12.3H257.1z"/>
		<path class="st2" d="M313.3,344.9v-61.4h36.8v12.3h-24.6V308h24.6v12.3h-24.6v12.3h24.6v12.3H313.3z"/>
		<path class="st2" d="M385.8,349v-4.1h-24.6v-61.4h12.3v49.1h12.3v-49.1H398v49.1h12.3v-49.1h12.3v61.4H398v4.1H385.8z"/>
		<path class="st2" d="M433.7,344.9v-61.4h49.1v61.4H433.7z M470.6,332.6v-36.8H446v36.8H470.6z"/>
		<path class="st2" d="M536.9,357.2l-18.4-36.8h-12.3v24.6H494v-49.1h-4.1v-12.3h53.2v36.8h-10.2l14.3,28.6l-8.2,8.2H536.9z
			 M530.8,308v-12.3h-24.6V308H530.8z"/>
		<path class="st2" d="M574.7,320.3h-8.2v24.6h-12.3v-61.4h12.3V308h20.5v-24.6h12.3v36.8H589l10.2,20.5l2,2L591,353.1L574.7,320.3z
			"/>
		<path class="st2" d="M610.4,344.9v-12.3h24.6v-4.1l-24.6-24.6v-20.5h36.8v16.4h-12.3v-4.1h-12.3v4.1l24.6,24.6v20.5H610.4z"/>
	</g>
	<g>
		<rect x="263.4" y="239.4" class="st3" width="260.8" height="37.2"/>
		<path class="st0" d="M525.9,252.9v-29.4h-17.5h-8.7h-36.3h-11.8h-30.2h-8.7h-27.1h-8.7h-36.3h-8.7h-27.1h-8.7h-48.1v24.4h3.1v29.4
			h36l9.1-7.2v7.2h44.6v-4.8l6,4.8h30.3h8.7h35.9v-24.4h-9.2v-5h0.5h8.7h3.5v29.4h26.2v-29.4h0.5h3.1v29.4h26.2v-14.7h1.3v14.7h17.5
			h8.7h35.9v-24.4H525.9z"/>
		<path class="st4" d="M259.3,268.7v-29.4h-3.1V232H296v26.9l-12.2,9.8H259.3z M280.7,261.4l6.1-4.9v-17.1h-18.4v22H280.7z"/>
		<path class="st4" d="M304.3,268.7v-7.3h9.2v-22h-9.2V232h27.6v7.3h-9.2v22h9.2v7.3H304.3z"/>
		<path class="st4" d="M349.4,268.7l-9.2-7.3V232H377v7.3h-27.6v19.6l3.1,2.4h15.3V254h-9.2v-7.3H377v22H349.4z"/>
		<path class="st4" d="M385.3,268.7v-7.3h9.2v-22h-9.2V232h27.6v7.3h-9.2v22h9.2v7.3H385.3z"/>
		<path class="st4" d="M433.4,268.7v-29.4h-12.2V232h33.7v7.3h-12.2v29.4H433.4z"/>
		<path class="st4" d="M463.2,268.7v-29.4h-3.1V232h39.8v36.7h-9.2V254h-18.4v14.7H463.2z M490.7,246.7v-7.3h-18.4v7.3H490.7z"/>
		<path class="st4" d="M508.2,268.7V232h9.2v29.4h18.4v7.3H508.2z"/>
	</g>
</g>
</svg>
